CATALOG 0000000000000
FILE "Clockwork Knight v1.002 (1995)(Sega)(NTSC)(US)(Track 1 of 3)[!][1008681007 6-95 5SA1].iso" BINARY
  TRACK 01 MODE1/2048
    INDEX 01 00:00:00
FILE "Clockwork Knight v1.002 (1995)(Sega)(NTSC)(US)(Track 2 of 3)[!][1008681007 6-95 5SA1].wav" WAVE
  TRACK 02 AUDIO
    PREGAP 00:01:74
    INDEX 01 00:00:00
FILE "Clockwork Knight v1.002 (1995)(Sega)(NTSC)(US)(Track 3 of 3)[!][1008681007 6-95 5SA1].wav" WAVE
  TRACK 03 AUDIO
    INDEX 00 00:00:00
    INDEX 01 00:02:00
